<svg width="14" height="14" viewBox="0 0 14 14" xmlns="http://www.w3.org/2000/svg">
<path d="M12.7615 2.13046C11.9519 1.32084 10.8687 0.875 9.71103 0.875C8.7144 0.875 7.75926 1.52195 7 2.13046C6.22984 1.52195 5.30102 0.875 4.31413 0.875C3.15115 0.875 2.06506 1.32103 1.25546 2.13046C0.44584 2.93992 0 4.02333 0 5.18076C0 6.33836 0.44584 7.42161 1.25546 8.23104L6.64396 13.6195C6.74215 13.7179 6.87108 13.7671 7 13.7671C7.1286 13.7671 7.25717 13.7181 7.35555 13.6202L12.7484 8.24378C13.5557 7.41841 14 6.33366 14 5.18916C14 4.03408 13.5615 2.94932 12.7615 2.13046ZM12.0328 7.5349L7.00049 12.5517L1.96755 7.51896C1.34829 6.89954 1.00718 6.06911 1.00718 5.18076C1.00718 4.29242 0.0232716 4.72524 0.4375 6.125C1.00718 7.23486 2.60613 9.625 3.5 9.625C4.37962 9.625 6.01497 12.0697 6.65101 12.6915C6.84808 12.8844 7.16417 12.8827 7.35908 12.6875C7.9785 12.0682 11.1565 8.08287 12.045 8.08287C12.9335 8.08287 12.9473 4.63479 13.5625 5.25C14.1737 5.8753 12.9928 4.29863 12.9928 5.18916C12.9928 6.06894 12.6504 6.90372 12.0328 7.5349Z"/>
</svg>
