<svg width="16" height="15" viewBox="0 0 16 15" xmlns="http://www.w3.org/2000/svg">
<path d="M14.5846 1.43481C13.6593 0.509531 12.4213 0 11.0983 0C9.95931 0 8.86772 0.739375 8 1.43481C7.11981 0.739375 6.05831 0 4.93044 0C3.60131 0 2.36006 0.50975 1.43481 1.43481C0.509531 2.35991 0 3.59809 0 4.92088C0 6.24384 0.509531 7.48184 1.43481 8.40691L7.59309 14.5652C7.70531 14.6776 7.85266 14.7338 8 14.7338C8.14697 14.7338 8.29391 14.6778 8.40634 14.5659L14.5696 8.42147C15.4922 7.47819 16 6.23847 16 4.93047C16 3.61037 15.4989 2.37066 14.5846 1.43481ZM13.7517 7.61131L8.00056 13.3448L2.24863 7.59309C1.54091 6.88519 1.15106 5.93612 1.15106 4.92088C1.15106 3.90563 1.54091 2.95656 2.24863 2.24866C2.95653 1.54094 3.90887 1.15109 4.93044 1.15109C5.93572 1.15109 6.87425 1.90428 7.60116 2.61487C7.82638 2.83531 8.18763 2.83337 8.41038 2.61028C9.11828 1.90256 10.0829 1.15109 11.0983 1.15109C12.1137 1.15109 13.0626 1.54094 13.7657 2.24403C14.4642 2.95866 14.8489 3.91272 14.8489 4.93047C14.8489 5.93594 14.4576 6.88997 13.7517 7.61131Z"/>
</svg>
