<svg width="7" height="6" viewBox="0 0 7 6" fill="none" xmlns="http://www.w3.org/2000/svg">
<path d="M1.54868 0.0231344L1.10141 0.000744024C0.960926 -0.00629518 0.823125 0.0368151 0.716938 0.121524C0.500103 0.294442 0.153392 0.628745 0.0469017 1.06438C-0.111903 1.71394 0.133515 2.50933 0.768689 3.30472C1.40386 4.10011 2.58756 5.37273 4.68068 5.91626C5.35518 6.09141 5.88577 5.97333 6.29514 5.73285C6.61938 5.54239 6.84288 5.23668 6.92343 4.89108L6.99484 4.58478C7.01754 4.48742 6.96371 4.38864 6.86523 4.34696L5.35362 3.70711C5.25549 3.66559 5.13912 3.69183 5.07312 3.77038L4.4797 4.47684C4.43487 4.53022 4.35814 4.55137 4.28885 4.52902C3.88246 4.39786 2.52117 3.8743 1.77422 2.55299C1.74183 2.49569 1.74988 2.42613 1.79583 2.37725L2.36297 1.77474C2.42091 1.71322 2.43555 1.62672 2.40073 1.55195L1.74914 0.152027C1.71446 0.0774993 1.63672 0.0275488 1.54868 0.0231344Z" fill="white"/>
</svg>
