<svg width="8" height="7" viewBox="0 0 8 7" fill="none" xmlns="http://www.w3.org/2000/svg">
<path d="M5.99821 6.78622C5.85698 6.74474 5.72239 6.71687 5.59741 6.66669C4.30226 6.14682 3.11029 5.47613 2.16612 4.44801C1.62919 3.86337 1.20895 3.20332 0.853709 2.5048C0.685251 2.17354 0.543284 1.8293 0.39858 1.48732C0.266634 1.17545 0.46098 0.853255 0.665626 0.618276C0.857653 0.39775 1.10475 0.228978 1.37235 0.104598C1.58122 0.00750954 1.78726 0.0634823 1.9398 0.234768C2.26958 0.605079 2.57249 0.994332 2.81777 1.42358C2.9686 1.6876 2.92722 2.01033 2.65386 2.19001C2.58743 2.23368 2.52688 2.28494 2.46499 2.33427C2.41071 2.3775 2.35963 2.42117 2.32242 2.47971C2.25441 2.5868 2.25116 2.71311 2.29495 2.82955C2.63206 3.72584 3.20025 4.42278 4.13269 4.79817C4.28189 4.85822 4.43175 4.92816 4.60364 4.90877C4.89151 4.87622 4.98472 4.57073 5.18644 4.41111C5.38362 4.25513 5.63559 4.25307 5.84798 4.3831C6.06042 4.51318 6.26637 4.65282 6.47106 4.79395C6.672 4.93247 6.87205 5.06798 7.05739 5.22589C7.2356 5.37774 7.29698 5.57694 7.19663 5.78301C7.0129 6.16042 6.74558 6.4744 6.35995 6.67481C6.25106 6.73132 6.12102 6.74964 5.99821 6.78622C6.12102 6.74964 5.85698 6.7447 5.99821 6.78622Z" fill="white"/>
</svg>
