<svg width="14" height="14" viewBox="0 0 14 14" fill="none" xmlns="http://www.w3.org/2000/svg">
<path d="M13.6868 3.36579L13.6827 3.34963C13.3449 2.02863 11.8222 0.611125 10.4239 0.316223L10.4081 0.313081C8.14641 -0.10436 5.85313 -0.10436 3.59186 0.313081L3.57562 0.316223C2.17776 0.611125 0.65509 2.02863 0.316874 3.34963L0.313163 3.36579C-0.104388 5.21061 -0.104388 7.08147 0.313163 8.92629L0.316874 8.94245C0.640662 10.2071 2.04994 11.5594 3.39608 11.9314V13.406C3.39608 13.9397 4.06833 14.2018 4.45062 13.8167L5.99486 12.2637C6.32979 12.2818 6.66489 12.2919 7 12.2919C8.13852 12.2919 9.2775 12.1878 10.4081 11.979L10.4239 11.9759C11.8222 11.681 13.3449 10.2635 13.6827 8.94249L13.6868 8.92634C14.1044 7.08147 14.1044 5.21061 13.6868 3.36579ZM12.4648 8.65877C12.2393 9.52058 11.0832 10.592 10.1646 10.79C8.96198 11.0112 7.74987 11.1058 6.53898 11.0733C6.5149 11.0727 6.49175 11.0817 6.47495 11.0984C6.30311 11.2691 5.34743 12.2182 5.34743 12.2182L4.14813 13.4091C4.06045 13.4975 3.90642 13.4374 3.90642 13.3153V10.8725C3.90642 10.8321 3.87663 10.7978 3.83566 10.7901C3.83543 10.79 3.8352 10.79 3.83497 10.7899C2.91636 10.592 1.76067 9.52054 1.53473 8.65872C1.15893 6.9912 1.15893 5.30079 1.53473 3.63327C1.76067 2.77145 2.91636 1.70002 3.83497 1.50207C5.93525 1.1156 8.06475 1.1156 10.1646 1.50207C11.0836 1.70002 12.2393 2.77145 12.4648 3.63327C12.841 5.30083 12.841 6.99125 12.4648 8.65877Z" fill="white"/>
</svg>
