<svg width="14" height="14" viewBox="0 0 14 14" fill="none" xmlns="http://www.w3.org/2000/svg">
<g clip-path="url(#clip0)">
<path fill-rule="evenodd" clip-rule="evenodd" d="M4.21052 3.40375L6.94117 0.672852L9.67129 3.40323C9.94298 3.66896 9.88304 3.85683 9.50366 3.85657H7.97888L7.97862 7.17522C7.97862 7.74844 7.51387 8.21319 6.94065 8.21319C6.36717 8.21319 5.90268 7.74818 5.90268 7.17522L5.90294 3.85683H4.37894C3.99904 3.85683 3.93858 3.66947 4.21052 3.40375ZM11.3188 7.36004H12.8885C13.0322 7.36004 13.148 7.47604 13.1477 7.61954V12.9298C13.1477 13.7194 12.505 14.3627 11.7145 14.3627H2.30844C1.51828 14.3627 0.875 13.72 0.875 12.9298V7.61954C0.875 7.47604 0.990993 7.36004 1.13449 7.36004H2.70416C2.84766 7.36004 2.96366 7.47604 2.96366 7.61954V12.2746H11.0593V7.61954C11.0593 7.47604 11.175 7.36004 11.3188 7.36004Z" fill="#2A2939"/>
</g>
<defs>
<clipPath id="clip0">
<path d="M0 0H14V14H0V0Z" fill="white"/>
</clipPath>
</defs>
</svg>
