<svg width="14" height="14" viewBox="0 0 14 14" fill="none" xmlns="http://www.w3.org/2000/svg">
<path d="M0 14L0.980483 10.5214C0.349975 9.45145 0.0180081 8.23405 0.0180081 6.98344C0.0180081 3.13276 3.15417 0 7.00903 0C10.8639 0 14 3.13276 14 6.98344C14 10.8341 10.8639 13.9669 7.00903 13.9669C5.80788 13.9669 4.63172 13.6597 3.59124 13.0766L0 14ZM3.77483 11.8061L3.98883 11.9366C4.896 12.4898 5.94039 12.7823 7.00903 12.7823C10.21 12.7823 12.8141 10.1809 12.8141 6.98344C12.8141 3.78597 10.21 1.18462 7.00903 1.18462C3.80808 1.18462 1.20392 3.78597 1.20392 6.98344C1.20392 8.09755 1.52091 9.17947 2.12054 10.1122L2.26465 10.3364L1.70002 12.3396L3.77483 11.8061Z" fill="white"/>
</svg>
