<svg xmlns="http://www.w3.org/2000/svg" xmlns:xlink="http://www.w3.org/1999/xlink"><defs>
<clipPath id="clip0">
<path d="M0 0H14V14H0V0Z" fill="white"/>
</clipPath>

<clipPath id="clip0">
<path d="M0 0H14V14H0V0Z" fill="white"/>
</clipPath>
</defs><symbol id="icon-arrow" viewBox="0 0 28 16">
<path d="M27.7071 8.70711C28.0976 8.31658 28.0976 7.68342 27.7071 7.29289L21.3431 0.928932C20.9526 0.538408 20.3195 0.538408 19.9289 0.928932C19.5384 1.31946 19.5384 1.95262 19.9289 2.34315L25.5858 8L19.9289 13.6569C19.5384 14.0474 19.5384 14.6805 19.9289 15.0711C20.3195 15.4616 20.9526 15.4616 21.3431 15.0711L27.7071 8.70711ZM0 9L27 9V7L0 7L0 9Z"/>
</symbol><symbol id="icon-favorite" viewBox="0 0 14 14">
<path d="M12.7615 2.13046C11.9519 1.32084 10.8687 0.875 9.71103 0.875C8.7144 0.875 7.75926 1.52195 7 2.13046C6.22984 1.52195 5.30102 0.875 4.31413 0.875C3.15115 0.875 2.06506 1.32103 1.25546 2.13046C0.44584 2.93992 0 4.02333 0 5.18076C0 6.33836 0.44584 7.42161 1.25546 8.23104L6.64396 13.6195C6.74215 13.7179 6.87108 13.7671 7 13.7671C7.1286 13.7671 7.25717 13.7181 7.35555 13.6202L12.7484 8.24378C13.5557 7.41841 14 6.33366 14 5.18916C14 4.03408 13.5615 2.94932 12.7615 2.13046ZM12.0328 7.5349L7.00049 12.5517L1.96755 7.51896C1.34829 6.89954 1.00718 6.06911 1.00718 5.18076C1.00718 4.29242 0.0232716 4.72524 0.4375 6.125C1.00718 7.23486 2.60613 9.625 3.5 9.625C4.37962 9.625 6.01497 12.0697 6.65101 12.6915C6.84808 12.8844 7.16417 12.8827 7.35908 12.6875C7.9785 12.0682 11.1565 8.08287 12.045 8.08287C12.9335 8.08287 12.9473 4.63479 13.5625 5.25C14.1737 5.8753 12.9928 4.29863 12.9928 5.18916C12.9928 6.06894 12.6504 6.90372 12.0328 7.5349Z"/>
</symbol><symbol id="icon-fb" viewBox="0 0 16 16">
<path d="M8 0C3.582 0 0 3.316 0 7.407C0 9.738 1.163 11.817 2.981 13.175V16L5.705 14.505C6.432 14.706 7.202 14.815 8 14.815C12.418 14.815 16 11.499 16 7.408C16 3.317 12.418 0 8 0ZM8.795 9.975L6.758 7.802L2.783 9.975L7.156 5.333L9.243 7.506L13.168 5.333L8.795 9.975Z" fill="#2A2939"/>
</symbol><symbol id="icon-heart" viewBox="0 0 16 15">
<path d="M14.5846 1.43481C13.6593 0.509531 12.4213 0 11.0983 0C9.95931 0 8.86772 0.739375 8 1.43481C7.11981 0.739375 6.05831 0 4.93044 0C3.60131 0 2.36006 0.50975 1.43481 1.43481C0.509531 2.35991 0 3.59809 0 4.92088C0 6.24384 0.509531 7.48184 1.43481 8.40691L7.59309 14.5652C7.70531 14.6776 7.85266 14.7338 8 14.7338C8.14697 14.7338 8.29391 14.6778 8.40634 14.5659L14.5696 8.42147C15.4922 7.47819 16 6.23847 16 4.93047C16 3.61037 15.4989 2.37066 14.5846 1.43481ZM13.7517 7.61131L8.00056 13.3448L2.24863 7.59309C1.54091 6.88519 1.15106 5.93612 1.15106 4.92088C1.15106 3.90563 1.54091 2.95656 2.24863 2.24866C2.95653 1.54094 3.90887 1.15109 4.93044 1.15109C5.93572 1.15109 6.87425 1.90428 7.60116 2.61487C7.82638 2.83531 8.18763 2.83337 8.41038 2.61028C9.11828 1.90256 10.0829 1.15109 11.0983 1.15109C12.1137 1.15109 13.0626 1.54094 13.7657 2.24403C14.4642 2.95866 14.8489 3.91272 14.8489 4.93047C14.8489 5.93594 14.4576 6.88997 13.7517 7.61131Z"/>
</symbol><symbol id="icon-left" viewBox="0 0 20 32">
<path d="M16.1334 32L19.8667 28.2667L7.60003 16L19.8667 3.73333L16.1334 3.26378e-07L0.133364 16L16.1334 32Z"/>
</symbol><symbol id="icon-load" viewBox="0 0 14 14">
<g clip-path="url(#clip0)">
<path fill-rule="evenodd" clip-rule="evenodd" d="M4.21052 3.40375L6.94117 0.672852L9.67129 3.40323C9.94298 3.66896 9.88304 3.85683 9.50366 3.85657H7.97888L7.97862 7.17522C7.97862 7.74844 7.51387 8.21319 6.94065 8.21319C6.36717 8.21319 5.90268 7.74818 5.90268 7.17522L5.90294 3.85683H4.37894C3.99904 3.85683 3.93858 3.66947 4.21052 3.40375ZM11.3188 7.36004H12.8885C13.0322 7.36004 13.148 7.47604 13.1477 7.61954V12.9298C13.1477 13.7194 12.505 14.3627 11.7145 14.3627H2.30844C1.51828 14.3627 0.875 13.72 0.875 12.9298V7.61954C0.875 7.47604 0.990993 7.36004 1.13449 7.36004H2.70416C2.84766 7.36004 2.96366 7.47604 2.96366 7.61954V12.2746H11.0593V7.61954C11.0593 7.47604 11.175 7.36004 11.3188 7.36004Z" fill="#2A2939"/>
</g>

</symbol><symbol id="icon-location" viewBox="0 0 12 16">
<path d="M6.00004 0C2.80488 0 0.205444 2.59944 0.205444 5.79456C0.205444 9.75981 5.39104 15.581 5.61182 15.8269C5.81919 16.0579 6.18126 16.0575 6.38826 15.8269C6.60904 15.581 11.7946 9.75981 11.7946 5.79456C11.7946 2.59944 9.19516 0 6.00004 0ZM6.00004 8.70997C4.39248 8.70997 3.08466 7.40212 3.08466 5.79456C3.08466 4.187 4.39251 2.87919 6.00004 2.87919C7.60757 2.87919 8.91538 4.18703 8.91538 5.79459C8.91538 7.40216 7.60757 8.70997 6.00004 8.70997Z" fill="#2A2939"/>
</symbol><symbol id="icon-right" viewBox="0 0 20 32">
<path d="M3.86666 0L0.133331 3.73333L12.4 16L0.133331 28.2667L3.86666 32L19.8667 16L3.86666 0Z" fill="#ED6766"/>
</symbol><symbol id="icon-upload" viewBox="0 0 14 14">
<g clip-path="url(#clip0)">
<path fill-rule="evenodd" clip-rule="evenodd" d="M4.21052 3.40375L6.94117 0.672852L9.67129 3.40323C9.94298 3.66896 9.88304 3.85683 9.50366 3.85657H7.97888L7.97862 7.17522C7.97862 7.74844 7.51387 8.21319 6.94065 8.21319C6.36717 8.21319 5.90268 7.74818 5.90268 7.17522L5.90294 3.85683H4.37894C3.99904 3.85683 3.93858 3.66947 4.21052 3.40375ZM11.3188 7.36004H12.8885C13.0322 7.36004 13.148 7.47604 13.1477 7.61954V12.9298C13.1477 13.7194 12.505 14.3627 11.7145 14.3627H2.30844C1.51828 14.3627 0.875 13.72 0.875 12.9298V7.61954C0.875 7.47604 0.990993 7.36004 1.13449 7.36004H2.70416C2.84766 7.36004 2.96366 7.47604 2.96366 7.61954V12.2746H11.0593V7.61954C11.0593 7.47604 11.175 7.36004 11.3188 7.36004Z" fill="#2A2939"/>
</g>

</symbol><symbol id="icon-viber-wrap" viewBox="0 0 14 14">
<path d="M13.6868 3.36579L13.6827 3.34963C13.3449 2.02863 11.8222 0.611125 10.4239 0.316223L10.4081 0.313081C8.14641 -0.10436 5.85313 -0.10436 3.59186 0.313081L3.57562 0.316223C2.17776 0.611125 0.65509 2.02863 0.316874 3.34963L0.313163 3.36579C-0.104388 5.21061 -0.104388 7.08147 0.313163 8.92629L0.316874 8.94245C0.640662 10.2071 2.04994 11.5594 3.39608 11.9314V13.406C3.39608 13.9397 4.06833 14.2018 4.45062 13.8167L5.99486 12.2637C6.32979 12.2818 6.66489 12.2919 7 12.2919C8.13852 12.2919 9.2775 12.1878 10.4081 11.979L10.4239 11.9759C11.8222 11.681 13.3449 10.2635 13.6827 8.94249L13.6868 8.92634C14.1044 7.08147 14.1044 5.21061 13.6868 3.36579ZM12.4648 8.65877C12.2393 9.52058 11.0832 10.592 10.1646 10.79C8.96198 11.0112 7.74987 11.1058 6.53898 11.0733C6.5149 11.0727 6.49175 11.0817 6.47495 11.0984C6.30311 11.2691 5.34743 12.2182 5.34743 12.2182L4.14813 13.4091C4.06045 13.4975 3.90642 13.4374 3.90642 13.3153V10.8725C3.90642 10.8321 3.87663 10.7978 3.83566 10.7901C3.83543 10.79 3.8352 10.79 3.83497 10.7899C2.91636 10.592 1.76067 9.52054 1.53473 8.65872C1.15893 6.9912 1.15893 5.30079 1.53473 3.63327C1.76067 2.77145 2.91636 1.70002 3.83497 1.50207C5.93525 1.1156 8.06475 1.1156 10.1646 1.50207C11.0836 1.70002 12.2393 2.77145 12.4648 3.63327C12.841 5.30083 12.841 6.99125 12.4648 8.65877Z" fill="white"/>
</symbol><symbol id="icon-viber" viewBox="0 0 8 7">
<path d="M5.99821 6.78622C5.85698 6.74474 5.72239 6.71687 5.59741 6.66669C4.30226 6.14682 3.11029 5.47613 2.16612 4.44801C1.62919 3.86337 1.20895 3.20332 0.853709 2.5048C0.685251 2.17354 0.543284 1.8293 0.39858 1.48732C0.266634 1.17545 0.46098 0.853255 0.665626 0.618276C0.857653 0.39775 1.10475 0.228978 1.37235 0.104598C1.58122 0.00750954 1.78726 0.0634823 1.9398 0.234768C2.26958 0.605079 2.57249 0.994332 2.81777 1.42358C2.9686 1.6876 2.92722 2.01033 2.65386 2.19001C2.58743 2.23368 2.52688 2.28494 2.46499 2.33427C2.41071 2.3775 2.35963 2.42117 2.32242 2.47971C2.25441 2.5868 2.25116 2.71311 2.29495 2.82955C2.63206 3.72584 3.20025 4.42278 4.13269 4.79817C4.28189 4.85822 4.43175 4.92816 4.60364 4.90877C4.89151 4.87622 4.98472 4.57073 5.18644 4.41111C5.38362 4.25513 5.63559 4.25307 5.84798 4.3831C6.06042 4.51318 6.26637 4.65282 6.47106 4.79395C6.672 4.93247 6.87205 5.06798 7.05739 5.22589C7.2356 5.37774 7.29698 5.57694 7.19663 5.78301C7.0129 6.16042 6.74558 6.4744 6.35995 6.67481C6.25106 6.73132 6.12102 6.74964 5.99821 6.78622C6.12102 6.74964 5.85698 6.7447 5.99821 6.78622Z" fill="white"/>
</symbol><symbol id="icon-whatsapp-wrap" viewBox="0 0 14 14">
<path d="M0 14L0.980483 10.5214C0.349975 9.45145 0.0180081 8.23405 0.0180081 6.98344C0.0180081 3.13276 3.15417 0 7.00903 0C10.8639 0 14 3.13276 14 6.98344C14 10.8341 10.8639 13.9669 7.00903 13.9669C5.80788 13.9669 4.63172 13.6597 3.59124 13.0766L0 14ZM3.77483 11.8061L3.98883 11.9366C4.896 12.4898 5.94039 12.7823 7.00903 12.7823C10.21 12.7823 12.8141 10.1809 12.8141 6.98344C12.8141 3.78597 10.21 1.18462 7.00903 1.18462C3.80808 1.18462 1.20392 3.78597 1.20392 6.98344C1.20392 8.09755 1.52091 9.17947 2.12054 10.1122L2.26465 10.3364L1.70002 12.3396L3.77483 11.8061Z" fill="white"/>
</symbol><symbol id="icon-whatsapp" viewBox="0 0 7 6">
<path d="M1.54868 0.0231344L1.10141 0.000744024C0.960926 -0.00629518 0.823125 0.0368151 0.716938 0.121524C0.500103 0.294442 0.153392 0.628745 0.0469017 1.06438C-0.111903 1.71394 0.133515 2.50933 0.768689 3.30472C1.40386 4.10011 2.58756 5.37273 4.68068 5.91626C5.35518 6.09141 5.88577 5.97333 6.29514 5.73285C6.61938 5.54239 6.84288 5.23668 6.92343 4.89108L6.99484 4.58478C7.01754 4.48742 6.96371 4.38864 6.86523 4.34696L5.35362 3.70711C5.25549 3.66559 5.13912 3.69183 5.07312 3.77038L4.4797 4.47684C4.43487 4.53022 4.35814 4.55137 4.28885 4.52902C3.88246 4.39786 2.52117 3.8743 1.77422 2.55299C1.74183 2.49569 1.74988 2.42613 1.79583 2.37725L2.36297 1.77474C2.42091 1.71322 2.43555 1.62672 2.40073 1.55195L1.74914 0.152027C1.71446 0.0774993 1.63672 0.0275488 1.54868 0.0231344Z" fill="white"/>
</symbol></svg>
